<?xml version="1.0" encoding="utf-8"?>
<!-- Generator: Adobe Illustrator 23.0.4, SVG Export Plug-In . SVG Version: 6.00 Build 0)  -->
<svg version="1.1" xmlns="http://www.w3.org/2000/svg" xmlns:xlink="http://www.w3.org/1999/xlink" x="0px" y="0px"
	 viewBox="0 0 180 109.3" xml:space="preserve">
<style type="text/css">
	.st0{fill:#FFFFFF;}
	.st1{fill-rule:evenodd;clip-rule:evenodd;fill:#F89628;}
</style>
<title>AWS</title>
<path class="st0" d="M42.3,51.9c0,1.5,0.1,3,0.6,4.4c0.4,1.2,1,2.4,1.7,3.6c0.2,0.3,0.3,0.7,0.3,1.1c-0.1,0.6-0.4,1.2-1,1.5
	l-3.2,2.1c-0.4,0.3-0.8,0.4-1.3,0.4c-0.6,0-1.1-0.3-1.5-0.7c-0.7-0.7-1.3-1.5-1.8-2.3c-0.5-0.8-1-1.8-1.5-2.9c-3.6,4.4-9,7-14.7,6.9
	c-4.2,0-7.5-1.2-10-3.6c-2.5-2.6-3.8-6.1-3.6-9.6c-0.1-3.9,1.5-7.7,4.5-10.3c3-2.6,7.1-3.9,12.2-3.9c1.8,0,3.5,0.1,5.3,0.4
	c1.8,0.3,3.7,0.6,5.7,1.1v-3.6c0-3.8-0.8-6.5-2.3-8c-1.6-1.5-4.3-2.3-8.1-2.3c-1.8,0-3.6,0.2-5.4,0.7c-1.8,0.4-3.6,1-5.4,1.7
	c-0.6,0.3-1.1,0.5-1.7,0.7c-0.3,0.1-0.5,0.1-0.8,0.1c-0.7,0-1-0.5-1-1.6v-2.4c0-0.6,0.1-1.2,0.3-1.7c0.4-0.5,0.9-0.8,1.4-1
	c2-1,4.1-1.7,6.3-2.3c2.5-0.7,5.1-1,7.8-1c5.9,0,10.3,1.4,13,4.1c2.8,2.7,4.1,6.8,4.2,12.3L42.3,51.9z M22,59.5
	c1.8,0,3.5-0.3,5.1-0.9c1.8-0.6,3.4-1.7,4.7-3.2c0.8-0.9,1.4-2,1.7-3.2c0.3-1.4,0.5-2.9,0.5-4.4v-2c-1.5-0.4-3-0.7-4.6-0.9
	c-1.5-0.2-3.1-0.3-4.7-0.3c-3.3,0-5.8,0.7-7.4,2c-1.7,1.4-2.6,3.6-2.4,5.8c-0.1,1.9,0.5,3.8,1.8,5.3C18.2,59,20.1,59.6,22,59.5z
	 M62.1,64.9c-0.7,0.1-1.3-0.1-1.9-0.5c-0.5-0.6-0.9-1.2-1-2L47.4,23.8c-0.2-0.6-0.4-1.3-0.4-2c-0.1-0.6,0.3-1.1,0.9-1.2
	c0.1,0,0.2,0,0.3,0h4.9c0.7-0.1,1.4,0.1,2,0.5c0.5,0.6,0.9,1.3,1,2l8.4,33l7.8-33c0.1-0.8,0.5-1.5,1-2c0.6-0.4,1.3-0.5,2-0.5h4
	c0.7-0.1,1.4,0.1,2,0.5c0.5,0.5,0.9,1.2,1,2l7.9,33.4l8.6-33.4c0.1-0.7,0.5-1.4,1-2c0.6-0.4,1.3-0.6,2-0.5h4.6c0.6,0,1.1,0.4,1.1,1
	c0,0.1,0,0.1,0,0.2c0,0.3,0,0.5-0.1,0.8c-0.1,0.4-0.2,0.8-0.4,1.2l-12,38.6c-0.1,0.8-0.5,1.5-1.1,2c-0.6,0.4-1.2,0.5-1.9,0.5h-4.3
	c-0.7,0.1-1.4-0.1-2-0.5c-0.5-0.5-0.9-1.2-1-2L77,30.3l-7.7,32.1c-0.1,0.7-0.5,1.4-1,2c-0.6,0.4-1.3,0.6-2,0.5L62.1,64.9z
	 M126.1,66.2c-2.6,0-5.1-0.3-7.6-0.9c-2-0.4-3.9-1.1-5.8-2c-0.6-0.3-1.2-0.8-1.5-1.4c-0.2-0.4-0.3-0.9-0.3-1.4V58
	c0-1,0.4-1.6,1.1-1.6c0.3,0,0.6,0.1,0.9,0.2c0.3,0.1,0.7,0.3,1.3,0.5c1.8,0.8,3.6,1.4,5.5,1.7c2,0.4,3.9,0.6,5.9,0.6
	c3.1,0,5.6-0.6,7.3-1.7c1.6-1,2.6-2.8,2.6-4.7c0-1.3-0.4-2.6-1.4-3.5c-1.5-1.2-3.2-2.1-5-2.6l-7.2-2.3c-3.7-1.2-6.3-2.8-8-5.1
	c-1.6-2.1-2.5-4.6-2.5-7.2c0-1.9,0.4-3.8,1.4-5.5c0.9-1.6,2.1-3,3.6-4.1c1.5-1.2,3.3-2,5.2-2.6c2-0.6,4.2-0.9,6.3-0.9
	c1.1,0,2.2,0.1,3.4,0.2c1.1,0.1,2.2,0.3,3.2,0.6c1,0.2,2,0.5,2.8,0.8c0.7,0.2,1.4,0.5,2.1,0.9c0.6,0.3,1.1,0.7,1.5,1.2
	c0.3,0.5,0.5,1.1,0.4,1.7V27c0,1-0.4,1.6-1.1,1.6c-0.7-0.1-1.3-0.3-1.9-0.6c-3-1.3-6.3-2-9.6-1.9c-2.3-0.1-4.6,0.4-6.6,1.4
	c-1.6,0.9-2.5,2.6-2.4,4.5c0,1.3,0.5,2.6,1.5,3.5c1.6,1.3,3.5,2.2,5.5,2.8l7.1,2.3c3.6,1.2,6.2,2.8,7.7,4.8c1.5,2,2.3,4.5,2.3,7
	c0,2-0.4,4-1.3,5.8c-0.9,1.7-2.1,3.2-3.6,4.4c-1.7,1.3-3.5,2.2-5.5,2.8C130.9,65.9,128.5,66.2,126.1,66.2z"/>
<path class="st1" d="M135.6,90.8c-16.4,12.1-40.2,18.6-60.7,18.6C47.5,109.5,21,99.4,0.7,81c-1.5-1.4-0.2-3.3,1.7-2.2
	C25,91.8,50.5,98.5,76.6,98.5c19.5-0.1,38.7-4,56.6-11.6C136,85.8,138.3,88.8,135.6,90.8z"/>
<path class="st1" d="M142.4,83c-2.1-2.7-13.9-1.3-19.2-0.6c-1.6,0.2-1.9-1.2-0.4-2.2c9.4-6.6,24.8-4.7,26.6-2.5s-0.5,17.7-9.3,25.1
	c-1.4,1.1-2.6,0.5-2-1C140.1,96.7,144.5,85.7,142.4,83z"/>
</svg>
